# xmcd
#
# Track frame offsets: 
#        150
#        23044
#        46189
#        65167
#        82862
#        102944
#        118518
#        138880
#        156254
#        181769
#        196882
#        220211
#        235317
#        252131
#        278947
#        292562
#        312511
#        341118
#
# Disc length: 4777 seconds
#
# Revision: 0
# Processed by: cddbd v1.5.2PL0 Copyright (c) Steve Scherf et al.
# Submitted via: ExactAudioCopy v1.3
#
DISCID=fa12a712
DTITLE=Various Artist - Akella Presents - vol.195 - Black Pure Blues 
DTITLE=CD2
DYEAR=2019
DGENRE=Blues
TTITLE0=Kirk Fletcher - Two Steps Forward
TTITLE1=Vasti Jackson - The Fix It Man
TTITLE2=Bobby Rush - Hey Hey Bobby Rush
TTITLE3=Finis Tasby - People Don't Care
TTITLE4=Michael Burks - Got A Way With Women
TTITLE5=Roy Roberts - Couldn't See The Tears For The Rain
TTITLE6=Buddy Miles - Let's Talk About the Blues
TTITLE7=Lucky Peterson - Age Ain't Nothing But A Number
TTITLE8=Little Boys Blue and Kid Memphis - Blues Bug
TTITLE9=Big Jack Reynolds - Honest I Do
TTITLE10=Chris Cain Nasta Super - Cold Women with Worm Hearts
TTITLE11=Harpdog Brown - Whiskey Bottle
TTITLE12=Elvin Bishop's Big Fun Trio - Another Mule
TTITLE13=Fillmore Slim - Jody Must Be in My Business
TTITLE14=Anson Funderburgh and The Rockets - Willie Jo
TTITLE15=Grady Champion - Everybody Knows About My Good Thing
TTITLE16=Aron Burton - Two Way Street
TTITLE17=Arthur Adams - Forgive Me
EXTD=
EXTT0=
EXTT1=
EXTT2=
EXTT3=
EXTT4=
EXTT5=
EXTT6=
EXTT7=
EXTT8=
EXTT9=
EXTT10=
EXTT11=
EXTT12=
EXTT13=
EXTT14=
EXTT15=
EXTT16=
EXTT17=
PLAYORDER=
